# xmcd CD database file
#
# Track frame offsets:
#	150
#	22810
#	37896
#	48660
#	58471
#	69010
#	95957
#	115431
#	135760
#	152620
#	164095
#	198037
#	211207
#	224105
#	235832
#	249770
#	264148
#
# Disc length: 3713 seconds
#
# Revision: 0
# Processed by: cddbd v1.5.1PL2 Copyright (c) Steve Scherf et al.
# Submitted via: CDex 1.50Beta7
#
DISCID=e90e7f11
DTITLE=Christma Blues - Stormy Santa Disc 2
DYEAR=1970
DGENRE=Blues
TTITLE0=Mahalia Jackson - Silent Night
TTITLE1=Chuck Berry - Christmas
TTITLE2=Staple Singers - Who Took The Merry Out Of Christmas
TTITLE3=Dodie Stevens - Merry, Merry Christmas Baby
TTITLE4=Otis Redding - Merry Christmas Baby
TTITLE5=James Brown - Christmas Is Love
TTITLE6=James Brown - Santa Claus IsDefinitely Here To Stay
TTITLE7=William Clark - Please Let Me Be Your Santa Claus
TTITLE8=Lightnin´ Hopkins - Santa
TTITLE9=Sonny Boy Williamson - Sonny Boy´s Christmas Blues
TTITLE10=Canned Heat - Christmas Blues
TTITLE11=Temptations - Rudolph The Rednosed Raindeer
TTITLE12=Gladys Knight - Jingle Bells
TTITLE13=Diana Ross and The Supremes - Santa Claus Is Coming To Town
TTITLE14=Jackson Five - Up On The Housetop
TTITLE15=Keith Richards - Run, Run Rudolph
TTITLE16=Chuck Berry - Merry Xmas Baby
EXTD=YEAR: 1970
EXTT0=
EXTT1=
EXTT2=
EXTT3=
EXTT4=
EXTT5=
EXTT6=
EXTT7=
EXTT8=
EXTT9=
EXTT10=
EXTT11=
EXTT12=
EXTT13=
EXTT14=
EXTT15=
EXTT16=
PLAYORDER=
